<svg width="32" height="32" viewBox="0 0 32 32" fill="none" xmlns="http://www.w3.org/2000/svg">
<g clip-path="url(#clip0_7_7)">
<path fill-rule="evenodd" clip-rule="evenodd" d="M2.66797 16C2.66797 8.63599 8.6373 2.66666 16.0013 2.66666C23.3653 2.66666 29.3346 8.63599 29.3346 16C29.3346 23.364 23.3653 29.3333 16.0013 29.3333C8.6373 29.3333 2.66797 23.364 2.66797 16ZM19.0586 18.276C19.3101 18.5189 19.6469 18.6533 19.9965 18.6502C20.3461 18.6472 20.6805 18.507 20.9277 18.2597C21.1749 18.0125 21.3152 17.6781 21.3182 17.3285C21.3212 16.9789 21.1868 16.6421 20.944 16.3907L16.944 12.3907C16.6939 12.1407 16.3549 12.0003 16.0013 12.0003C15.6477 12.0003 15.3087 12.1407 15.0586 12.3907L11.0586 16.3907C10.9313 16.5137 10.8297 16.6608 10.7598 16.8234C10.69 16.9861 10.6532 17.1611 10.6516 17.3381C10.6501 17.5152 10.6838 17.6907 10.7509 17.8546C10.8179 18.0185 10.9169 18.1673 11.0421 18.2925C11.1673 18.4177 11.3162 18.5167 11.48 18.5838C11.6439 18.6508 11.8195 18.6845 11.9965 18.683C12.1735 18.6815 12.3485 18.6447 12.5112 18.5748C12.6738 18.5049 12.821 18.4033 12.944 18.276L16.0013 15.2187L19.0586 18.276Z" fill="black"/>
</g>
<defs>
<clipPath id="clip0_7_7">
<rect width="32" height="32" fill="white"/>
</clipPath>
</defs>
</svg>
